<svg xmlns="http://www.w3.org/2000/svg" width="0" height="0">
	<symbol viewBox="0 0 24 24" id="facebook">
		<path fill-rule="evenodd" clip-rule="evenodd" d="M0 12.067C0 18.0335 4.33333 22.9944 10 24V15.3333H7V12H10V9.33332C10 6.33332 11.9333 4.66666 14.6667 4.66666C15.5333 4.66666 16.4667 4.79999 17.3333 4.93332V7.99999H15.8C14.3333 7.99999 14 8.73332 14 9.66666V12H17.2L16.6667 15.3333H14V24C19.6667 22.9944 24 18.0335 24 12.067C24 5.43017 18.6 0 12 0C5.4 0 0 5.43017 0 12.067Z"/>
	</symbol>
	<symbol viewBox="0 0 24 24" id="telegram" >
		<path d="M21 5L2 12.5L9 13.5M21 5L18.5 20L9 13.5M21 5L9 13.5M9 13.5V19L12.2488 15.7229"/>
	</symbol>
	<symbol viewBox="0 0 52.511 52.511" id="viber">
		<path d="M31.256,0H21.254C10.778,0,2.255,8.521,2.255,18.995v9.01c0,7.8,4.793,14.81,12,17.665v5.841
		c0,0.396,0.233,0.754,0.595,0.914c0.13,0.058,0.268,0.086,0.405,0.086c0.243,0,0.484-0.089,0.671-0.259L21.725,47h9.531
		c10.476,0,18.999-8.521,18.999-18.995v-9.01C50.255,8.521,41.732,0,31.256,0z M48.255,28.005C48.255,37.376,40.63,45,31.256,45
		h-9.917c-0.248,0-0.487,0.092-0.671,0.259l-4.413,3.997v-4.279c0-0.424-0.267-0.802-0.667-0.942
		C8.81,41.638,4.255,35.196,4.255,28.005v-9.01C4.255,9.624,11.881,2,21.254,2h10.002c9.374,0,16.999,7.624,16.999,16.995V28005z"/>
		<path d="M39.471,30.493l-6.146-3.992c-0.672-0.437-1.472-0.585-2.255-0.423c-0.784,0.165-1.458,0.628-1.895,1.303l-0.289,0.444
		c-2.66-0.879-5.593-2.002-7.349-7.085l0.727-0.632h0c1.248-1.085,1.379-2.983,0.294-4.233l-4.808-5.531
		c-0.362-0.417-0.994-0.46-1.411-0.099l-3.019,2.624c-2.648,2.302-1.411,5.707-1.004,6.826c0.018,0.05,0.04,0.098,0.066,0.145
		c0.105,0.188,2.612,4.662,6.661,8.786c4.065,4.141,11.404,7.965,11.629,8.076c0.838,0.544,1.781,0.805,2.714,0.805
		c1.638,0,3.244-0.803,4.202-2.275l2.178-3.354C40.066,31.413,39.934,30.794,39.471,30.493z M35.91,34.142
		c-0.901,1.388-2.763,1.782-4.233,0.834c-0.073-0.038-7.364-3.835-11.207-7.75c-3.592-3.659-5.977-7.724-6.302-8.291
		c-0.792-2.221-0.652-3.586,0.464-4.556l2.265-1.968l4.152,4.776c0.369,0.424,0.326,1.044-0.096,1.411l-1.227,1.066
		c-0.299,0.26-0.417,0.671-0.3,1.049c2.092,6.798,6.16,8.133,9.13,9.108l0.433,0.143c0.433,0.146,0.907-0.021,1.155-0.403
		l0.709-1.092c0.146-0.226,0.37-0.379,0.63-0.434c0.261-0.056,0.527-0.004,0.753,0.143l5.308,3.447L35.91,34.142z"/>
		<path d="M28.538,16.247c-0.532-0.153-1.085,0.156-1.236,0.688c-0.151,0.531,0.157,1.084,0.688,1.235
		c1.49,0.424,2.677,1.613,3.097,3.104c0.124,0.44,0.525,0.729,0.962,0.729c0.09,0,0.181-0.012,0.272-0.037
		c0.531-0.15,0.841-0.702,0.691-1.234C32.405,18.578,30.69,16.859,28.538,16.247z"/>
		<path d="M36.148,22.219c0.09,0,0.181-0.012,0.272-0.037c0.532-0.15,0.841-0.703,0.691-1.234c-1.18-4.183-4.509-7.519-8.689-8.709
		c-0.531-0.153-1.084,0.158-1.235,0.689c-0.151,0.531,0.157,1.084,0.688,1.235c3.517,1,6.318,3.809,7.311,7.328
		C35.311,21.931,35.711,22.219,36.148,22.219z"/>
		<path d="M27.991,7.582c-0.532-0.153-1.085,0.156-1.236,0.689c-0.151,0.531,0.157,1.084,0.688,1.235
		c5.959,1.695,10.706,6.453,12.388,12.416c0.124,0.44,0.525,0.729,0.962,0.729c0.09,0,0.181-0.012,0.272-0.037
		c0.531-0.15,0.841-0.703,0.691-1.234C39.887,14.753,34.613,9.467,27.991,7.582z"/>
	</symbol>
	<symbol viewBox="0 0 490 490" id="instagram">
		<path d="M245,135c-60.654,0-110,49.346-110,110s49.346,110,110,110s110-49.346,110-110S305.654,135,245,135z M245,335
		c-49.626,0-90-40.374-90-90c0-49.626,40.374-90,90-90c49.626,0,90,40.374,90,90C335,294.626,294.626,335,245,335z"/>
		<path d="M355,90c-19.299,0-35,15.701-35,35s15.701,35,35,35s35-15.701,35-35S374.299,90,355,90z M355,140
		c-8.272,0-15-6.729-15-15s6.728-15,15-15c8.272,0,15,6.729,15,15S363.272,140,355,140z"/>
		<path d="M245,175c-38.598,0-70,31.402-70,70c0,38.598,31.402,70,70,70c38.598,0,70-31.402,70-70C315,206.402,283.598,175,245,175
		z M245,295c-27.57,0-50-22.43-50-50s22.43-50,50-50s50,22.43,50,50S272.57,295,245,295z"/>
		<path d="M340,45H150C94.86,45,50,89.86,50,145v195c0,55.14,44.86,100,100,100h190c55.141,0,100-44.86,100-100V145
		C440,89.86,395.141,45,340,45z M420,340c0,44.112-35.888,80-80,80H150c-44.112,0-80-35.888-80-80V145c0-44.112,35.888-80,80-80
		h190c44.112,0,80,35.888,80,80V340z"/>
		<path d="M390,0H100C44.86,0,0,44.86,0,100v290c0,55.14,44.86,100,100,100h290c55.141,0,100-44.86,100-100V100
		C490,44.86,445.141,0,390,0z M470,390c0,44.112-35.888,80-80,80H100c-44.112,0-80-35.888-80-80V100c0-44.112,35.888-80,80-80h290
		c44.112,0,80,35.888,80,80V390z"/>
	</symbol>
	<symbol viewBox="0 0 32 32" id="twitter">
		<path class="cls-1" d="M29.24,7.92a11.24,11.24,0,0,1-3.17.8A5.79,5.79,0,0,0,28.45,5.8,11.12,11.12,0,0,1,25,7.13,5,5,0,0,0,21.17,5.4a5.34,5.34,0,0,0-5.43,5.3,3.69,3.69,0,0,0,.13,1.19A14.47,14.47,0,0,1,5,6.46a4.22,4.22,0,0,0-.8,2.65A5.53,5.53,0,0,0,6.6,13.62a7.33,7.33,0,0,1-2.39-.8V13a4.94,4.94,0,0,0,4.11,5.17,5.09,5.09,0,0,1-1.46.13,3,3,0,0,1-1.06-.13,5.29,5.29,0,0,0,5,3.71,10.92,10.92,0,0,1-6.75,2.25A4.52,4.52,0,0,1,2.76,24a15.81,15.81,0,0,0,9.4,2.65c9.93,0,14.44-8.22,14.44-15.24V10.7A10.38,10.38,0,0,0,29.24,7.92Z"/>
	</symbol>
	<symbol viewBox="0 0 24 24" id="discord">
		<path d="M20.317 4.4921C18.7873 3.80147 17.147 3.29265 15.4319 3.00122C15.4007 2.9956 15.3695 3.00965 15.3534 3.03777C15.1424 3.40697 14.9087 3.88862 14.7451 4.26719C12.9004 3.99545 11.0652 3.99545 9.25832 4.26719C9.09465 3.8802 8.85248 3.40697 8.64057 3.03777C8.62449 3.01059 8.59328 2.99654 8.56205 3.00122C6.84791 3.29172 5.20756 3.80054 3.67693 4.4921C3.66368 4.49772 3.65233 4.5071 3.64479 4.51928C0.533392 9.09311 -0.31895 13.5545 0.0991801 17.9606C0.101072 17.9822 0.11337 18.0028 0.130398 18.0159C2.18321 19.4993 4.17171 20.3998 6.12328 20.9967C6.15451 21.0061 6.18761 20.9949 6.20748 20.9695C6.66913 20.3492 7.08064 19.6952 7.43348 19.0073C7.4543 18.967 7.43442 18.9192 7.39186 18.9033C6.73913 18.6597 6.1176 18.3626 5.51973 18.0253C5.47244 17.9981 5.46865 17.9316 5.51216 17.8997C5.63797 17.8069 5.76382 17.7104 5.88396 17.613C5.90569 17.5952 5.93598 17.5914 5.96153 17.6026C9.88928 19.3672 14.1415 19.3672 18.023 17.6026C18.0485 17.5905 18.0788 17.5942 18.1015 17.612C18.2216 17.7095 18.3475 17.8069 18.4742 17.8997C18.5177 17.9316 18.5149 17.9981 18.4676 18.0253C17.8697 18.3692 17.2482 18.6597 16.5945 18.9024C16.552 18.9183 16.533 18.967 16.5538 19.0073C16.9143 19.6942 17.3258 20.3483 17.7789 20.9686C17.7978 20.9949 17.8319 21.0061 17.8631 20.9967C19.8241 20.3998 21.8126 19.4993 23.8654 18.0159C23.8834 18.0028 23.8948 17.9831 23.8967 17.9616C24.3971 12.8676 23.0585 8.4428 20.3482 4.52021C20.3416 4.5071 20.3303 4.49772 20.317 4.4921ZM8.02002 15.2778C6.8375 15.2778 5.86313 14.2095 5.86313 12.8976C5.86313 11.5857 6.8186 10.5175 8.02002 10.5175C9.23087 10.5175 10.1958 11.5951 10.1769 12.8976C10.1769 14.2095 9.22141 15.2778 8.02002 15.2778ZM15.9947 15.2778C14.8123 15.2778 13.8379 14.2095 13.8379 12.8976C13.8379 11.5857 14.7933 10.5175 15.9947 10.5175C17.2056 10.5175 18.1705 11.5951 18.1516 12.8976C18.1516 14.2095 17.2056 15.2778 15.9947 15.2778Z"/>
	</symbol>
	<symbol viewBox="0 0 512 512" id="house">
		<path d="M500.5,222.7l-65.5-52.2V57.3h-67.6v59.5L256,28.2L11.5,222.7h72.8v261.1h111.3h120.7h110.3V222.7H500.5z M386,131.2V77.1   h29.1v77.8L386,131.2z M65.6,204L256,52.1L446.4,204H65.6z M214.4,465.1V339.2c0-22.9,18.7-41.6,41.6-41.6s41.6,18.7,41.6,41.6   v125.9H214.4z M408.9,465.1h-92.6V339.2c0-33.3-27-60.3-60.3-60.3c-33.3,0-60.3,27-60.3,60.3v125.9h-91.5V222.7h304.8V465.1z"/>
	</symbol>
	<symbol viewBox="0 0 330 330" id="down_arrow">
		<path id="XMLID_24_" d="M216.358,271.76c-2.322-5.605-7.792-9.26-13.858-9.26H180V15c0-8.284-6.716-15-15-15
		c-8.284,0-15,6.716-15,15v247.5h-22.5c-6.067,0-11.537,3.655-13.858,9.26c-2.321,5.605-1.038,12.057,3.252,16.347l37.5,37.5
		C157.322,328.536,161.161,330,165,330s7.678-1.464,10.607-4.394l37.5-37.5C217.396,283.816,218.68,277.365,216.358,271.76z"/>
	</symbol>
	<symbol viewBox="0 0 330 330" id="left_arrow">
		<path id="XMLID_18_" d="M315,150l-247.5,0.001V127.5c0-6.067-3.655-11.537-9.26-13.858c-5.607-2.322-12.058-1.038-16.347,3.252
		l-37.5,37.5c-5.858,5.858-5.858,15.355,0,21.213l37.5,37.5c2.87,2.87,6.706,4.394,10.61,4.394c1.932,0,3.881-0.374,5.737-1.142
		c5.605-2.322,9.26-7.791,9.26-13.858v-22.499L315,180c8.284,0,15-6.716,15-15C330,156.716,323.284,150,315,150z"/>
	</symbol>
	<symbol viewBox="0 0 33 32" id="gallery">
	<path d="M1.5,28h26c0.827,0,1.5-0.673,1.5-1.5v-25C29,0.673,28.327,0,27.5,0h-26C0.673,0,0,0.673,0,1.5v25
		C0,27.327,0.673,28,1.5,28z M1,1.5C1,1.224,1.225,1,1.5,1h26C27.775,1,28,1.224,28,1.5v25c0,0.276-0.225,0.5-0.5,0.5h-26
		C1.225,27,1,26.776,1,26.5V1.5z"/>
	<path d="M18,11c1.103,0,2-0.897,2-2s-0.897-2-2-2s-2,0.897-2,2S16.897,11,18,11z M18,8c0.552,0,1,0.449,1,1
		s-0.448,1-1,1s-1-0.449-1-1S17.448,8,18,8z"/>
	<path d="M3.5,23h22c0.276,0,0.5-0.224,0.5-0.5v-19C26,3.224,25.776,3,25.5,3h-22C3.224,3,3,3.224,3,3.5v19
		C3,22.776,3.224,23,3.5,23z M4,22v-4.638c0.022-0.016,0.047-0.025,0.067-0.045l5.116-5.116c0.26-0.26,0.712-0.259,0.972,0
		l7.521,7.521c0.098,0.098,0.226,0.146,0.354,0.146c0.124,0,0.248-0.046,0.345-0.138l3.866-3.672c0.13-0.13,0.303-0.202,0.486-0.202
		c0.184,0,0.355,0.072,0.464,0.178L25,18.093V22H4z M25,4v12.581l-1.081-1.228c-0.317-0.319-0.741-0.495-1.191-0.495
		c-0.001,0-0.001,0-0.001,0c-0.451,0-0.875,0.176-1.185,0.486l-3.504,3.328l-7.176-7.177c-0.639-0.638-1.749-0.637-2.386,0L4,15.971
		V4H25z"/>
	<path d="M4.5,29.083c-0.276,0-0.5,0.224-0.5,0.5V30.5C4,31.327,4.673,32,5.5,32h26c0.827,0,1.5-0.673,1.5-1.5v-26
		C33,3.673,32.327,3,31.5,3h-0.917c-0.276,0-0.5,0.224-0.5,0.5s0.224,0.5,0.5,0.5H31.5C31.775,4,32,4.224,32,4.5v26
		c0,0.276-0.225,0.5-0.5,0.5h-26C5.225,31,5,30.776,5,30.5v-0.917C5,29.307,4.776,29.083,4.5,29.083z"/>
	</symbol>
</svg>